<svg xmlns="http://www.w3.org/2000/svg" width="36" height="36" viewBox="0 0 36 36"><g><g><path fill="#fff" d="M35.237 18c0 9.521-7.718 17.238-17.237 17.238C8.48 35.238.763 27.52.763 18 .763 8.48 8.48.763 18 .763 27.52.763 35.237 8.48 35.237 18zm-7.636-8.21c0-.766-.637-1.388-1.422-1.388H9.788c-.786 0-1.422.622-1.422 1.388v16.583c0 .767.636 1.387 1.422 1.387h16.39c.786 0 1.423-.62 1.423-1.387zm-2.929 9.806v5.01h-2.905v-4.675c0-1.175-.42-1.977-1.472-1.977-.802 0-1.28.542-1.49 1.063-.077.188-.096.446-.096.708v4.881h-2.905s.038-7.92 0-8.739h2.905v1.237a.22.22 0 0 1-.02.03h.02v-.03c.386-.596 1.077-1.442 2.618-1.442 1.912 0 3.345 1.248 3.345 3.934zm-10.284-6.433c0 .838-.631 1.51-1.645 1.51h-.019c-.974 0-1.605-.672-1.605-1.51 0-.857.65-1.51 1.644-1.51.994 0 1.605.653 1.625 1.51zm-3.097 2.704h2.906v8.74H11.29z"/></g></g></svg>