<svg xmlns="http://www.w3.org/2000/svg" width="27" height="27" viewBox="0 0 27 27"><g><g><path fill="#fff" d="M15.414 6.047c.826 0 1.496.601 1.496 1.488 0 .886-.67 1.487-1.496 1.487s-1.496-.601-1.496-1.487c0-.887.67-1.488 1.496-1.488zm-1.137 4.017c1.04.107 1.531.937 1.35 1.85l-2.175 7.19c-.03.162.057.326.204.378.16.056.496-.15.767-.447l1.305-1.57c.036.262-.023.726-.023.902-.981 1.472-1.98 2.608-3.659 2.608-1.146-.187-1.617-1.008-1.368-1.845l2.16-7.154c.052-.175-.035-.363-.195-.419-.16-.056-.472.151-.742.447l-1.305 1.57c-.036-.262-.004-.699-.004-.875.981-1.472 2.593-2.634 3.685-2.634zm-13.61 3.52c0 7.18 5.82 13 13 13s13-5.82 13-13-5.82-13-13-13-13 5.82-13 13z"/><path fill="#fff" d="M15.414 6.047c.826 0 1.496.601 1.496 1.488 0 .886-.67 1.487-1.496 1.487s-1.496-.601-1.496-1.487c0-.887.67-1.488 1.496-1.488zm-1.137 4.017c1.04.107 1.531.937 1.35 1.85l-2.175 7.19c-.03.162.057.326.204.378.16.056.496-.15.767-.447l1.305-1.57c.036.262-.023.726-.023.902-.981 1.472-1.98 2.608-3.659 2.608-1.146-.187-1.617-1.008-1.368-1.845l2.16-7.154c.052-.175-.035-.363-.195-.419-.16-.056-.472.151-.742.447l-1.305 1.57c-.036-.262-.004-.699-.004-.875.981-1.472 2.593-2.634 3.685-2.634zm-13.61 3.52c0 7.18 5.82 13 13 13s13-5.82 13-13-5.82-13-13-13-13 5.82-13 13z"/></g></g></svg>