<svg xmlns="http://www.w3.org/2000/svg" width="33" height="31" viewBox="0 0 33 31"><g><g><path fill="#fff" d="M26.604 28.524l-2.624-.72-.005-7.257 2.51.706 3.62-13.51L11.77 2.832l-1.207 4.506H8.495L10.358.384 32.55 6.331zm-3.565 2.413H0V7.961h23.039zM21.041 9.96H1.998v13.986H21.04zM7.849 19.93l2.283-3.693 2.284 2.301 3.14-4.727 3.282 8.135H4.28l1.855-3.711zm-1.365-3.907a1.499 1.499 0 1 1 0-2.997 1.499 1.499 0 0 1 0 2.997z"/><path fill="#fff" d="M26.604 28.524l-2.624-.72-.005-7.257 2.51.706 3.62-13.51L11.77 2.832l-1.207 4.506H8.495L10.358.384 32.55 6.331zm-3.565 2.413H0V7.961h23.039zM21.041 9.96H1.998v13.986H21.04zM7.849 19.93l2.283-3.693 2.284 2.301 3.14-4.727 3.282 8.135H4.28l1.855-3.711zm-1.365-3.907a1.499 1.499 0 1 1 0-2.997 1.499 1.499 0 0 1 0 2.997z"/></g></g></svg>