<svg xmlns="http://www.w3.org/2000/svg" width="36" height="36" viewBox="0 0 36 36"><g><g><path fill="#fff" d="M35.237 18c0 9.52-7.717 17.237-17.236 17.237C8.48 35.237.763 27.52.763 18 .763 8.482 8.481.763 18.001.763s17.236 7.72 17.236 17.238zm-6.385-5.724a8.704 8.704 0 0 1-2.496.685 4.355 4.355 0 0 0 1.91-2.404c-.839.498-1.768.86-2.758 1.054a4.344 4.344 0 0 0-7.402 3.962 12.332 12.332 0 0 1-8.954-4.538 4.345 4.345 0 0 0 1.345 5.8 4.335 4.335 0 0 1-1.968-.544v.055a4.347 4.347 0 0 0 3.484 4.26 4.333 4.333 0 0 1-1.961.074 4.349 4.349 0 0 0 4.057 3.016 8.718 8.718 0 0 1-5.395 1.86c-.35 0-.696-.02-1.036-.06a12.298 12.298 0 0 0 6.659 1.951c7.99 0 12.36-6.619 12.36-12.36 0-.188-.004-.375-.013-.562a8.827 8.827 0 0 0 2.168-2.249z"/></g></g></svg>