<svg xmlns="http://www.w3.org/2000/svg" width="30" height="30" viewBox="0 0 30 30"><g><g><path fill="#fff" d="M28.592 28.572l-.71.71a2.006 2.006 0 0 1-2.837 0l-5.675-5.675c-.657-.658-.73-1.643-.283-2.411l-3.102-3.102a9.973 9.973 0 0 1-5.964 1.98c-5.54 0-10.032-4.492-10.032-10.032S4.48.01 10.021.01c5.54 0 10.031 4.492 10.031 10.032 0 2.579-.982 4.923-2.58 6.7l3.034 3.035c.768-.446 1.753-.374 2.411.283l5.675 5.675a2.006 2.006 0 0 1 0 2.837zM17.523 10A7.523 7.523 0 0 0 10 2.477c-1.158 0-2.24.282-3.22.749.523.538 1.313 1.342 1.355 1.342-.815 0-3.484 2.668-3.484 3.546 0-.042-.85-.848-1.405-1.371A7.45 7.45 0 0 0 2.476 10a7.524 7.524 0 1 0 15.047 0z"/><path fill="#fffdfd" d="M28.592 28.572l-.71.71a2.006 2.006 0 0 1-2.837 0l-5.675-5.675c-.657-.658-.73-1.643-.283-2.411l-3.102-3.102a9.973 9.973 0 0 1-5.964 1.98c-5.54 0-10.032-4.492-10.032-10.032S4.48.01 10.021.01c5.54 0 10.031 4.492 10.031 10.032 0 2.579-.982 4.923-2.58 6.7l3.034 3.035c.768-.446 1.753-.374 2.411.283l5.675 5.675a2.006 2.006 0 0 1 0 2.837zM17.523 10A7.523 7.523 0 0 0 10 2.477c-1.158 0-2.24.282-3.22.749.523.538 1.313 1.342 1.355 1.342-.815 0-3.484 2.668-3.484 3.546 0-.042-.85-.848-1.405-1.371A7.45 7.45 0 0 0 2.476 10a7.524 7.524 0 1 0 15.047 0z"/></g></g></svg>