<?xml version="1.0" encoding="utf-8"?>
<!-- Generator: Adobe Illustrator 17.1.0, SVG Export Plug-In . SVG Version: 6.00 Build 0)  -->
<!DOCTYPE svg PUBLIC "-//W3C//DTD SVG 1.1//EN" "http://www.w3.org/Graphics/SVG/1.1/DTD/svg11.dtd">
<svg version="1.1" id="Layer_1" xmlns="http://www.w3.org/2000/svg" xmlns:xlink="http://www.w3.org/1999/xlink" x="0px" y="0px"
	 viewBox="0 0 90 23" enable-background="new 0 0 90 23" xml:space="preserve">
<polygon fill="#FFFFFF" points="2,1 2,4 16.3,4 11.5,10 15.3,10 22.3,1 "/>
<polygon fill="#FFFFFF" points="9.2,13 2.1,22 22,22 22,19 8.3,19 12.9,13 "/>
<path fill="#FFFFFF" d="M31.2,10c0.1-0.6,0.3-1.1,0.5-1.7c0.2-0.5,0.5-1,0.8-1.4c0.3-0.4,0.6-0.8,1-1.2c0.4-0.4,0.8-0.7,1.2-1
	C35,4.4,35.5,4.2,36,4c1-0.4,2.1-0.7,3.2-0.7c1.1,0,2.2,0.2,3.2,0.7c1,0.4,1.8,1,2.6,1.8c0.8,0.8,1.4,1.6,1.8,2.6
	c0.2,0.5,0.4,1.1,0.5,1.7h2.9c-0.1-1-0.4-1.9-0.7-2.8c-0.6-1.4-1.4-2.5-2.4-3.6c-1-1-2.2-1.8-3.6-2.4c-1.4-0.6-2.8-0.9-4.3-0.9
	c-1.5,0-2.9,0.3-4.3,0.9c-1.4,0.6-2.5,1.4-3.5,2.4c-1,1-1.8,2.2-2.4,3.6C28.5,8.1,28.3,9,28.1,10H31.2z"/>
<path fill="#FFFFFF" d="M47.3,13c-0.1,0.6-0.3,1.2-0.5,1.7c-0.4,1-1,1.9-1.8,2.6c-0.7,0.7-1.6,1.3-2.6,1.8c-0.9,0.4-2,0.7-3.2,0.7
	c-1.2,0-2.2-0.2-3.2-0.7c-1-0.4-1.8-1-2.6-1.8c-0.8-0.8-1.4-1.6-1.8-2.6c-0.2-0.6-0.4-1.1-0.5-1.7h-3c0.1,1,0.4,2,0.8,2.9
	c0.6,1.4,1.4,2.5,2.4,3.6c1,1,2.2,1.8,3.5,2.4c1.4,0.6,2.8,0.9,4.3,0.9c1.5,0,2.9-0.3,4.3-0.9c1.4-0.6,2.5-1.4,3.6-2.4
	c1-1,1.8-2.2,2.4-3.6c0.4-0.9,0.6-1.8,0.7-2.9H47.3z"/>
<path fill="#FFFFFF" d="M59.2,10c0.1-0.6,0.3-1.1,0.5-1.7c0.2-0.5,0.5-1,0.8-1.4c0.3-0.4,0.6-0.8,1-1.2c0.4-0.4,0.8-0.7,1.2-1
	C63.1,4.4,63.5,4.2,64,4c1-0.4,2.1-0.7,3.2-0.7c1.1,0,2.2,0.2,3.2,0.7c1,0.4,1.8,1,2.6,1.8c0.8,0.8,1.4,1.6,1.8,2.6
	c0.2,0.5,0.4,1.1,0.5,1.7h2.9c-0.1-1-0.4-1.9-0.7-2.8c-0.6-1.4-1.4-2.5-2.4-3.6c-1-1-2.2-1.8-3.6-2.4c-1.4-0.6-2.8-0.9-4.3-0.9
	c-1.5,0-2.9,0.3-4.3,0.9c-1.4,0.6-2.5,1.4-3.5,2.4c-1,1-1.8,2.2-2.4,3.6C56.6,8.1,56.3,9,56.2,10H59.2z"/>
<path fill="#FFFFFF" d="M75.3,13c-0.1,0.6-0.3,1.2-0.5,1.7c-0.4,1-1,1.9-1.8,2.6c-0.7,0.7-1.6,1.3-2.6,1.8c-0.9,0.4-2,0.7-3.2,0.7
	c-1.2,0-2.2-0.2-3.2-0.7c-1-0.4-1.8-1-2.6-1.8c-0.8-0.8-1.4-1.6-1.8-2.6c-0.2-0.6-0.4-1.1-0.5-1.7h-3c0.1,1,0.4,2,0.8,2.9
	c0.6,1.4,1.4,2.5,2.4,3.6c1,1,2.2,1.8,3.5,2.4c1.4,0.6,2.8,0.9,4.3,0.9s2.9-0.3,4.3-0.9c1.4-0.6,2.5-1.4,3.6-2.4
	c1-1,1.8-2.2,2.4-3.6c0.4-0.9,0.6-1.8,0.7-2.9H75.3z"/>
<rect x="85.1" y="1" fill="#FFFFFF" width="2.9" height="9"/>
<rect x="85.1" y="13" fill="#FFFFFF" width="2.9" height="9"/>
</svg>
